<mxfile host="app.diagrams.net" agent="Mozilla/5.0 (Windows NT 10.0; Win64; x64) AppleWebKit/537.36 (KHTML, like Gecko) Chrome/137.0.0.0 Safari/537.36 Edg/137.0.0.0" version="27.1.6">
  <diagram name="Página-1" id="e45OjPIBaFHz5NlUAJ0t">
    <mxGraphModel grid="1" page="1" gridSize="10" guides="1" tooltips="1" connect="1" arrows="1" fold="1" pageScale="1" pageWidth="827" pageHeight="1169" math="0" shadow="0">
      <root>
        <mxCell id="0" />
        <mxCell id="1" parent="0" />
        <mxCell id="2QU0HHwjT5UGIkDu3ld_-37" value="CU017 Asignar Recursos a Evento" style="swimlane;childLayout=stackLayout;resizeParent=1;resizeParentMax=0;startSize=20;horizontal=0;horizontalStack=1;fontStyle=1" vertex="1" parent="1">
          <mxGeometry x="860" y="40" width="780" height="700" as="geometry">
            <mxRectangle x="200" y="80" width="40" height="50" as="alternateBounds" />
          </mxGeometry>
        </mxCell>
        <mxCell id="2QU0HHwjT5UGIkDu3ld_-45" style="edgeStyle=orthogonalEdgeStyle;rounded=0;orthogonalLoop=1;jettySize=auto;html=1;entryX=0;entryY=0.5;entryDx=0;entryDy=0;strokeColor=light-dark(#ff0000, #ededed);" edge="1" parent="2QU0HHwjT5UGIkDu3ld_-37" source="N5Y5bQGJ7Rrj62xnqPJz-1" target="2QU0HHwjT5UGIkDu3ld_-49">
          <mxGeometry relative="1" as="geometry">
            <Array as="points" />
            <mxPoint x="280" y="95" as="sourcePoint" />
          </mxGeometry>
        </mxCell>
        <mxCell id="2QU0HHwjT5UGIkDu3ld_-38" value="Administrador" style="swimlane;startSize=20;" vertex="1" parent="2QU0HHwjT5UGIkDu3ld_-37">
          <mxGeometry x="20" width="290" height="700" as="geometry" />
        </mxCell>
        <mxCell id="2QU0HHwjT5UGIkDu3ld_-39" value="" style="ellipse;html=1;shape=startState;fillColor=#000000;strokeColor=#ff0000;fillStyle=auto;" vertex="1" parent="2QU0HHwjT5UGIkDu3ld_-38">
          <mxGeometry x="20" y="25" width="30" height="30" as="geometry" />
        </mxCell>
        <mxCell id="2QU0HHwjT5UGIkDu3ld_-41" value="" style="edgeStyle=orthogonalEdgeStyle;html=1;verticalAlign=bottom;endArrow=open;endSize=8;strokeColor=#ff0000;rounded=0;" edge="1" parent="2QU0HHwjT5UGIkDu3ld_-38" source="2QU0HHwjT5UGIkDu3ld_-39" target="N5Y5bQGJ7Rrj62xnqPJz-1">
          <mxGeometry relative="1" as="geometry">
            <mxPoint x="70" y="95" as="targetPoint" />
            <mxPoint x="340" y="320" as="sourcePoint" />
          </mxGeometry>
        </mxCell>
        <mxCell id="19LpKT9WDkHHw6tPcPYI-1" value="Pulsar el botón &quot;Crear Evento&quot;" style="rounded=1;whiteSpace=wrap;html=1;arcSize=40;fontColor=#000000;fillColor=#ffffc0;strokeColor=#ff0000;" vertex="1" parent="2QU0HHwjT5UGIkDu3ld_-38">
          <mxGeometry x="85" y="190" width="120" height="50" as="geometry" />
        </mxCell>
        <mxCell id="19LpKT9WDkHHw6tPcPYI-3" value="Pulsar el botón &quot;Asignar recursos&quot;" style="rounded=1;whiteSpace=wrap;html=1;arcSize=40;fontColor=#000000;fillColor=#ffffc0;strokeColor=#ff0000;" vertex="1" parent="2QU0HHwjT5UGIkDu3ld_-38">
          <mxGeometry x="85" y="300" width="120" height="40" as="geometry" />
        </mxCell>
        <mxCell id="19LpKT9WDkHHw6tPcPYI-8" value="Seleccionar recursos" style="rounded=1;whiteSpace=wrap;html=1;arcSize=40;fontColor=#000000;fillColor=#ffffc0;strokeColor=#ff0000;" vertex="1" parent="2QU0HHwjT5UGIkDu3ld_-38">
          <mxGeometry x="85" y="390" width="120" height="40" as="geometry" />
        </mxCell>
        <mxCell id="19LpKT9WDkHHw6tPcPYI-9" value="" style="edgeStyle=orthogonalEdgeStyle;html=1;verticalAlign=bottom;endArrow=open;endSize=8;strokeColor=#ff0000;rounded=0;" edge="1" parent="2QU0HHwjT5UGIkDu3ld_-38" source="19LpKT9WDkHHw6tPcPYI-8">
          <mxGeometry relative="1" as="geometry">
            <mxPoint x="145" y="480" as="targetPoint" />
            <Array as="points">
              <mxPoint x="145" y="470" />
              <mxPoint x="145" y="470" />
            </Array>
          </mxGeometry>
        </mxCell>
        <mxCell id="19LpKT9WDkHHw6tPcPYI-13" value="Pulsar el botón &quot;Registrar asignación&quot;" style="rounded=1;whiteSpace=wrap;html=1;arcSize=40;fontColor=#000000;fillColor=#ffffc0;strokeColor=#ff0000;" vertex="1" parent="2QU0HHwjT5UGIkDu3ld_-38">
          <mxGeometry x="85" y="470" width="120" height="40" as="geometry" />
        </mxCell>
        <mxCell id="N5Y5bQGJ7Rrj62xnqPJz-1" value="Pulsa el apartado &quot;Administrar eventos&quot;" style="rounded=1;whiteSpace=wrap;html=1;arcSize=40;fontColor=#000000;fillColor=#ffffc0;strokeColor=#ff0000;" vertex="1" parent="2QU0HHwjT5UGIkDu3ld_-38">
          <mxGeometry x="110" y="70" width="120" height="50" as="geometry" />
        </mxCell>
        <mxCell id="2QU0HHwjT5UGIkDu3ld_-47" value="Sistema" style="swimlane;startSize=20;" vertex="1" parent="2QU0HHwjT5UGIkDu3ld_-37">
          <mxGeometry x="310" width="470" height="700" as="geometry" />
        </mxCell>
        <mxCell id="2QU0HHwjT5UGIkDu3ld_-49" value="Mostrar apartado" style="rounded=1;whiteSpace=wrap;html=1;arcSize=40;fontColor=#000000;fillColor=#ffffc0;strokeColor=#ff0000;" vertex="1" parent="2QU0HHwjT5UGIkDu3ld_-47">
          <mxGeometry x="125" y="70" width="120" height="50" as="geometry" />
        </mxCell>
        <mxCell id="2QU0HHwjT5UGIkDu3ld_-42" value="" style="ellipse;html=1;shape=endState;fillColor=#000000;strokeColor=#ff0000;" vertex="1" parent="2QU0HHwjT5UGIkDu3ld_-47">
          <mxGeometry x="370" y="660" width="30" height="30" as="geometry" />
        </mxCell>
        <mxCell id="19LpKT9WDkHHw6tPcPYI-5" value="Mostrar formulario para crear un evento" style="rounded=1;whiteSpace=wrap;html=1;arcSize=40;fontColor=#000000;fillColor=#ffffc0;strokeColor=#ff0000;" vertex="1" parent="2QU0HHwjT5UGIkDu3ld_-47">
          <mxGeometry x="125" y="250" width="120" height="40" as="geometry" />
        </mxCell>
        <mxCell id="19LpKT9WDkHHw6tPcPYI-7" value="Mostrar listado de recursos" style="rounded=1;whiteSpace=wrap;html=1;arcSize=40;fontColor=#000000;fillColor=#ffffc0;strokeColor=#ff0000;" vertex="1" parent="2QU0HHwjT5UGIkDu3ld_-47">
          <mxGeometry x="120" y="350" width="120" height="40" as="geometry" />
        </mxCell>
        <mxCell id="19LpKT9WDkHHw6tPcPYI-14" value="¿Recursos asignados correctamente?" style="rhombus;whiteSpace=wrap;html=1;fontColor=#000000;fillColor=#ffffc0;strokeColor=#ff0000;" vertex="1" parent="2QU0HHwjT5UGIkDu3ld_-47">
          <mxGeometry x="147.5" y="452.5" width="135" height="75" as="geometry" />
        </mxCell>
        <mxCell id="19LpKT9WDkHHw6tPcPYI-15" value="si" style="edgeStyle=orthogonalEdgeStyle;html=1;align=left;verticalAlign=bottom;endArrow=open;endSize=8;strokeColor=#ff0000;rounded=0;entryX=0.5;entryY=0;entryDx=0;entryDy=0;" edge="1" parent="2QU0HHwjT5UGIkDu3ld_-47" source="19LpKT9WDkHHw6tPcPYI-14" target="19LpKT9WDkHHw6tPcPYI-18">
          <mxGeometry x="-1" relative="1" as="geometry">
            <mxPoint x="305" y="530" as="targetPoint" />
            <mxPoint as="offset" />
          </mxGeometry>
        </mxCell>
        <mxCell id="19LpKT9WDkHHw6tPcPYI-19" style="edgeStyle=orthogonalEdgeStyle;rounded=0;orthogonalLoop=1;jettySize=auto;html=1;entryX=0.5;entryY=0;entryDx=0;entryDy=0;strokeColor=light-dark(#ff0000, #ededed);" edge="1" parent="2QU0HHwjT5UGIkDu3ld_-47" source="19LpKT9WDkHHw6tPcPYI-18" target="2QU0HHwjT5UGIkDu3ld_-42">
          <mxGeometry relative="1" as="geometry" />
        </mxCell>
        <mxCell id="19LpKT9WDkHHw6tPcPYI-18" value="Mensaje de éxito&amp;nbsp;" style="rounded=1;whiteSpace=wrap;html=1;arcSize=40;fontColor=#000000;fillColor=#ffffc0;strokeColor=#ff0000;" vertex="1" parent="2QU0HHwjT5UGIkDu3ld_-47">
          <mxGeometry x="325" y="545" width="120" height="40" as="geometry" />
        </mxCell>
        <mxCell id="2QU0HHwjT5UGIkDu3ld_-48" style="edgeStyle=orthogonalEdgeStyle;rounded=0;orthogonalLoop=1;jettySize=auto;html=1;strokeColor=light-dark(#ff0000, #ededed);entryX=1;entryY=0.5;entryDx=0;entryDy=0;" edge="1" parent="2QU0HHwjT5UGIkDu3ld_-37" source="2QU0HHwjT5UGIkDu3ld_-49" target="19LpKT9WDkHHw6tPcPYI-1">
          <mxGeometry relative="1" as="geometry">
            <mxPoint x="490" y="200" as="targetPoint" />
            <Array as="points">
              <mxPoint x="495" y="215" />
            </Array>
          </mxGeometry>
        </mxCell>
        <mxCell id="19LpKT9WDkHHw6tPcPYI-2" style="edgeStyle=orthogonalEdgeStyle;rounded=0;orthogonalLoop=1;jettySize=auto;html=1;entryX=0;entryY=0.5;entryDx=0;entryDy=0;strokeColor=light-dark(#ff0000, #ededed);" edge="1" parent="2QU0HHwjT5UGIkDu3ld_-37" source="19LpKT9WDkHHw6tPcPYI-1" target="19LpKT9WDkHHw6tPcPYI-5">
          <mxGeometry relative="1" as="geometry">
            <mxPoint x="165" y="290" as="targetPoint" />
            <Array as="points">
              <mxPoint x="165" y="270" />
            </Array>
          </mxGeometry>
        </mxCell>
        <mxCell id="19LpKT9WDkHHw6tPcPYI-6" value="" style="edgeStyle=orthogonalEdgeStyle;html=1;verticalAlign=bottom;endArrow=open;endSize=8;strokeColor=#ff0000;rounded=0;entryX=1;entryY=0.5;entryDx=0;entryDy=0;" edge="1" parent="2QU0HHwjT5UGIkDu3ld_-37" source="19LpKT9WDkHHw6tPcPYI-5" target="19LpKT9WDkHHw6tPcPYI-3">
          <mxGeometry relative="1" as="geometry">
            <mxPoint x="510" y="400" as="targetPoint" />
            <Array as="points">
              <mxPoint x="495" y="320" />
            </Array>
          </mxGeometry>
        </mxCell>
        <mxCell id="19LpKT9WDkHHw6tPcPYI-4" value="" style="edgeStyle=orthogonalEdgeStyle;html=1;verticalAlign=bottom;endArrow=open;endSize=8;strokeColor=#ff0000;rounded=0;entryX=0;entryY=0.5;entryDx=0;entryDy=0;" edge="1" parent="2QU0HHwjT5UGIkDu3ld_-37" source="19LpKT9WDkHHw6tPcPYI-3" target="19LpKT9WDkHHw6tPcPYI-7">
          <mxGeometry relative="1" as="geometry">
            <mxPoint x="165" y="390" as="targetPoint" />
            <Array as="points">
              <mxPoint x="165" y="370" />
            </Array>
          </mxGeometry>
        </mxCell>
        <mxCell id="19LpKT9WDkHHw6tPcPYI-10" style="edgeStyle=orthogonalEdgeStyle;rounded=0;orthogonalLoop=1;jettySize=auto;html=1;entryX=1;entryY=0.5;entryDx=0;entryDy=0;strokeColor=light-dark(#ff0000, #ededed);" edge="1" parent="2QU0HHwjT5UGIkDu3ld_-37" source="19LpKT9WDkHHw6tPcPYI-7" target="19LpKT9WDkHHw6tPcPYI-8">
          <mxGeometry relative="1" as="geometry">
            <Array as="points">
              <mxPoint x="490" y="410" />
              <mxPoint x="225" y="410" />
            </Array>
          </mxGeometry>
        </mxCell>
        <mxCell id="19LpKT9WDkHHw6tPcPYI-17" style="edgeStyle=orthogonalEdgeStyle;rounded=0;orthogonalLoop=1;jettySize=auto;html=1;entryX=0;entryY=0.5;entryDx=0;entryDy=0;strokeColor=light-dark(#ff0000, #ededed);" edge="1" parent="2QU0HHwjT5UGIkDu3ld_-37" source="19LpKT9WDkHHw6tPcPYI-13" target="19LpKT9WDkHHw6tPcPYI-14">
          <mxGeometry relative="1" as="geometry" />
        </mxCell>
        <mxCell id="19LpKT9WDkHHw6tPcPYI-16" value="no" style="edgeStyle=orthogonalEdgeStyle;html=1;align=left;verticalAlign=top;endArrow=open;endSize=8;strokeColor=#ff0000;rounded=0;entryX=0;entryY=0.5;entryDx=0;entryDy=0;exitX=0.5;exitY=1;exitDx=0;exitDy=0;" edge="1" parent="2QU0HHwjT5UGIkDu3ld_-37" source="19LpKT9WDkHHw6tPcPYI-14" target="19LpKT9WDkHHw6tPcPYI-8">
          <mxGeometry x="-1" relative="1" as="geometry">
            <mxPoint x="475" y="610" as="targetPoint" />
            <Array as="points">
              <mxPoint x="523" y="590" />
              <mxPoint x="60" y="590" />
              <mxPoint x="60" y="410" />
            </Array>
            <mxPoint as="offset" />
          </mxGeometry>
        </mxCell>
      </root>
    </mxGraphModel>
  </diagram>
</mxfile>
